<svg xmlns="http://www.w3.org/2000/svg" width="188" height="48" fill="none">
    <path fill="#F2E3CE" d="M0 28h20v20H0z"/>
    <path fill="#333" d="M3.47 44.11a.9.9 0 0 1-.55-.15.63.63 0 0 1-.24-.4c-.02-.19 0-.38.1-.6l3.7-8.19c.12-.27.26-.46.43-.57a1.04 1.04 0 0 1 1.18 0c.17.11.32.3.45.57l3.7 8.2a1 1 0 0 1 .12.58.64.64 0 0 1-.24.42c-.13.1-.3.14-.52.14a.95.95 0 0 1-.62-.18 1.73 1.73 0 0 1-.37-.59l-.91-2.11.75.49h-5.9l.75-.5-.9 2.12c-.12.27-.24.47-.37.59s-.32.18-.56.18Zm4.02-8.03-1.96 4.66-.37-.45h4.68l-.35.45-1.98-4.66H7.5Z"/>
    <path fill="#CBB69C" d="M28 28h20v20H28z"/>
    <path fill="#333" d="M32.21 44a1 1 0 0 1-.71-.24 1 1 0 0 1-.24-.71v-7.97c0-.3.08-.54.24-.7.16-.17.4-.25.71-.25h3.36c.7 0 1.28.1 1.76.3a2.37 2.37 0 0 1 1.5 2.25c0 .6-.17 1.11-.52 1.52-.34.41-.81.69-1.4.83v-.21c.68.1 1.22.36 1.6.78.38.42.57.97.57 1.64 0 .88-.3 1.56-.9 2.05-.58.47-1.4.71-2.46.71h-3.5Zm.77-1.36h2.52c.64 0 1.1-.12 1.4-.36.3-.25.45-.63.45-1.12 0-.5-.15-.88-.45-1.12-.3-.24-.76-.37-1.4-.37h-2.52v2.97Zm0-4.32h2.28c.62 0 1.08-.12 1.37-.35.31-.25.47-.6.47-1.07 0-.46-.16-.81-.47-1.05-.3-.24-.75-.36-1.37-.36h-2.28v2.83Z"/>
    <path fill="#8A6E4E" d="M56 28h20v20H56z"/>
    <path fill="#fff" d="M63.91 44.14c-1.02 0-1.9-.2-2.64-.62-.73-.42-1.3-1-1.68-1.76a5.85 5.85 0 0 1-.6-2.7c0-.78.12-1.47.34-2.09.23-.62.55-1.16.97-1.6.42-.44.93-.78 1.54-1.02a5.9 5.9 0 0 1 3.58-.17c.5.14.93.32 1.3.57.2.12.33.27.4.44.06.17.08.34.04.5a.79.79 0 0 1-.24.41.7.7 0 0 1-.43.2.96.96 0 0 1-.56-.18 3.1 3.1 0 0 0-.94-.4 4.2 4.2 0 0 0-1.02-.13c-.66 0-1.22.13-1.68.4-.46.27-.8.66-1.04 1.18a4.56 4.56 0 0 0-.35 1.89c0 .74.12 1.37.35 1.89.24.52.58.92 1.04 1.19.46.27 1.02.4 1.68.4A3.79 3.79 0 0 0 66 42a.9.9 0 0 1 .54-.15c.17.01.31.07.42.17.12.1.2.24.23.4.04.14.03.3-.03.47a.89.89 0 0 1-.34.42c-.37.27-.82.48-1.34.63-.51.14-1.04.21-1.57.21Z"/>
    <path fill="#94631A" d="M84 28h20v20H84z"/>
    <path fill="#fff" d="M88.2 44a1 1 0 0 1-.72-.24 1 1 0 0 1-.23-.71v-7.97c0-.3.08-.54.23-.7.17-.17.41-.25.72-.25h2.71c1.66 0 2.93.42 3.83 1.27.9.85 1.35 2.07 1.35 3.66 0 .8-.11 1.5-.35 2.11-.22.6-.56 1.12-1 1.54a4.4 4.4 0 0 1-1.63.97c-.63.21-1.37.32-2.2.32H88.2Zm.84-1.48h1.76c.58 0 1.08-.07 1.5-.21a2.66 2.66 0 0 0 1.7-1.72c.15-.44.22-.95.22-1.53 0-1.16-.29-2.02-.86-2.6-.57-.56-1.42-.85-2.56-.85h-1.76v6.9Z"/>
    <path fill="#492A13" d="M112 28h20v20h-20z"/>
    <path fill="#fff" d="M117.35 44a1 1 0 0 1-.71-.24 1 1 0 0 1-.24-.71v-7.97c0-.3.08-.54.24-.7.17-.17.4-.25.71-.25h5c.23 0 .41.06.53.18.13.12.2.3.2.52 0 .23-.07.42-.2.55-.12.12-.3.18-.53.18h-4.23v2.71h3.92c.25 0 .43.06.55.19.12.12.18.3.18.53 0 .23-.06.4-.18.53-.12.12-.3.18-.55.18h-3.92v2.87h4.23c.23 0 .41.06.53.18.13.13.2.3.2.54 0 .23-.07.4-.2.53-.12.12-.3.18-.53.18h-5Z"/>
    <path fill="#4B3C2A" d="M140 28h20v20h-20z"/>
    <path fill="#fff" d="M147 44.11c-.24 0-.45-.05-.62-.17-.16-.12-.3-.3-.4-.53l-3.65-8.2a.93.93 0 0 1-.08-.62.7.7 0 0 1 .3-.42c.14-.1.32-.15.52-.15.27 0 .47.06.6.18.15.11.26.28.36.52l3.31 7.68h-.6l3.3-7.7c.1-.22.23-.39.37-.5a.87.87 0 0 1 .59-.18c.2 0 .37.05.5.15.14.1.23.24.27.42.03.18 0 .38-.1.62l-3.65 8.2c-.1.24-.24.41-.4.53a1 1 0 0 1-.61.17Z"/>
    <path fill="#1E1108" d="M168 28h20v20h-20z"/>
    <path fill="#fff" d="M175.5 44.11a.91.91 0 0 1-.67-.24 1 1 0 0 1-.22-.68v-7.56h-2.73a.8.8 0 0 1-.57-.2.8.8 0 0 1-.2-.56c0-.24.07-.42.2-.54a.8.8 0 0 1 .57-.2h7.25c.25 0 .43.07.56.2.14.12.21.3.21.54 0 .24-.07.42-.2.56-.14.13-.32.2-.57.2h-2.73v7.56a1 1 0 0 1-.22.68c-.15.16-.38.24-.67.24Z"/>
    <g clip-path="url(#clip0_1163_255)">
        <path fill="#1E1108" d="M168 0h20v20h-20z"/>
        <path fill="#3E2513" d="m178 3.33 6.67 6.67-6.67 6.67-6.67-6.67z"/>
        <path fill="#331C0B" d="m184.67-3.33 6.67 6.67-6.67 6.67L178 3.34z"/>
        <path fill="#140800" d="M171.33-3.33 178 3.34 171.33 10l-6.67-6.66z"/>
        <path fill="#331C0B" d="m184.67 10 6.67 6.67-6.67 6.67-6.67-6.67z"/>
        <path fill="#140800" d="m171.33 10 6.67 6.67-6.67 6.66-6.67-6.66z"/>
    </g>
    <g clip-path="url(#clip1_1163_255)">
        <path fill="#8A6E4E" d="M56 0h20v20H56z"/>
        <path fill="#BD966A" d="M66 3.33 72.67 10 66 16.67 59.33 10z"/>
        <path fill="#A6845D" d="m72.67-3.33 6.67 6.67-6.67 6.67L66 3.34z"/>
        <path fill="#725432" d="M59.33-3.33 66 3.34 59.33 10l-6.67-6.66z"/>
        <path fill="#A6845D" d="m72.67 10 6.67 6.67-6.67 6.67L66 16.67z"/>
        <path fill="#725432" d="M59.33 10 66 16.67l-6.67 6.66-6.67-6.66z"/>
    </g>
    <g clip-path="url(#clip2_1163_255)">
        <path fill="#CBB69C" d="M28 0h20v20H28z"/>
        <path fill="#EFDBC1" d="M38 3.33 44.67 10 38 16.67 31.33 10z"/>
        <path fill="#E2C9AB" d="m44.67-3.33 6.67 6.67-6.67 6.67L38 3.34z"/>
        <path fill="#BCA281" d="M31.33-3.33 38 3.34 31.33 10l-6.67-6.66z"/>
        <path fill="#E2C9AB" d="m44.67 10 6.67 6.67-6.67 6.67L38 16.67z"/>
        <path fill="#BCA281" d="M31.33 10 38 16.67l-6.67 6.66-6.67-6.66z"/>
    </g>
    <g clip-path="url(#clip3_1163_255)">
        <path fill="#F2E3CE" d="M0 0h20v20H0z"/>
        <path fill="#FEFFFB" d="M10 3.33 16.67 10 10 16.67 3.33 10z"/>
        <path fill="#FFEFD8" d="m16.67-3.33 6.67 6.67-6.67 6.67L10 3.34z"/>
        <path fill="#E8D1B1" d="M3.33-3.33 10 3.34 3.33 10l-6.67-6.66z"/>
        <path fill="#FFEFD8" d="m16.67 10 6.67 6.67-6.67 6.67L10 16.67z"/>
        <path fill="#E8D1B1" d="M3.33 10 10 16.67l-6.67 6.66-6.67-6.66z"/>
    </g>
    <g clip-path="url(#clip4_1163_255)">
        <path fill="#94631A" d="M84 0h20v20H84z"/>
        <path fill="#BB8028" d="m94 3.33 6.67 6.67L94 16.67 87.33 10z"/>
        <path fill="#A56E1E" d="m100.67-3.33 6.67 6.67-6.67 6.67L94 3.34z"/>
        <path fill="#835004" d="M87.33-3.33 94 3.34 87.33 10l-6.67-6.66z"/>
        <path fill="#A56E1E" d="m100.67 10 6.67 6.67-6.67 6.67L94 16.67z"/>
        <path fill="#835004" d="M87.33 10 94 16.67l-6.67 6.66-6.67-6.66z"/>
    </g>
    <g clip-path="url(#clip5_1163_255)">
        <path fill="#492A13" d="M112 0h20v20h-20z"/>
        <path fill="#76441E" d="m122 3.33 6.67 6.67-6.67 6.67-6.67-6.67z"/>
        <path fill="#683A18" d="m128.67-3.33 6.67 6.67-6.67 6.67L122 3.34z"/>
        <path fill="#371E0C" d="M115.33-3.33 122 3.34 115.33 10l-6.67-6.66z"/>
        <path fill="#683A18" d="m128.67 10 6.67 6.67-6.67 6.67-6.67-6.67z"/>
        <path fill="#371E0C" d="m115.33 10 6.67 6.67-6.67 6.66-6.67-6.66z"/>
    </g>
    <g clip-path="url(#clip6_1163_255)">
        <path fill="#4B3C2A" d="M140 0h20v20h-20z"/>
        <path fill="#7A6142" d="m150 3.33 6.67 6.67-6.67 6.67-6.67-6.67z"/>
        <path fill="#604C34" d="m156.67-3.33 6.67 6.67-6.67 6.67L150 3.34z"/>
        <path fill="#372C1E" d="M143.33-3.33 150 3.34 143.33 10l-6.67-6.66z"/>
        <path fill="#604C34" d="m156.67 10 6.67 6.67-6.67 6.67-6.67-6.67z"/>
        <path fill="#372C1E" d="m143.33 10 6.67 6.67-6.67 6.66-6.67-6.66z"/>
    </g>
    <defs>
        <clipPath id="clip0_1163_255">
            <path fill="#fff" d="M168 0h20v20h-20z"/>
        </clipPath>
        <clipPath id="clip1_1163_255">
            <path fill="#fff" d="M56 0h20v20H56z"/>
        </clipPath>
        <clipPath id="clip2_1163_255">
            <path fill="#fff" d="M28 0h20v20H28z"/>
        </clipPath>
        <clipPath id="clip3_1163_255">
            <path fill="#fff" d="M0 0h20v20H0z"/>
        </clipPath>
        <clipPath id="clip4_1163_255">
            <path fill="#fff" d="M84 0h20v20H84z"/>
        </clipPath>
        <clipPath id="clip5_1163_255">
            <path fill="#fff" d="M112 0h20v20h-20z"/>
        </clipPath>
        <clipPath id="clip6_1163_255">
            <path fill="#fff" d="M140 0h20v20h-20z"/>
        </clipPath>
    </defs>
</svg>
