<svg width="57" height="57" viewBox="0 0 57 57" fill="none" xmlns="http://www.w3.org/2000/svg">
<circle cx="28.041" cy="28.7307" r="28" fill="#3BA1FF"/>
<path d="M25.6742 32.8018V32.5837C25.6901 31.1601 25.8371 30.0274 26.1154 29.1855C26.4016 28.3437 26.8071 27.6625 27.3318 27.1421C27.8565 26.6216 28.4885 26.1471 29.2279 25.7185C29.7049 25.4277 30.1342 25.1024 30.5158 24.7427C30.8974 24.383 31.1995 23.9697 31.4221 23.5028C31.6447 23.036 31.756 22.5194 31.756 21.953C31.756 21.2718 31.589 20.6825 31.2551 20.185C30.9212 19.6876 30.476 19.3049 29.9195 19.037C29.371 18.7615 28.7588 18.6237 28.083 18.6237C27.4709 18.6237 26.8866 18.7462 26.3301 18.9911C25.7735 19.236 25.3124 19.6187 24.9467 20.1391C24.581 20.6519 24.3704 21.3139 24.3147 22.1252H20.6895C20.7451 20.7476 21.1068 19.5842 21.7746 18.6352C22.4425 17.6785 23.3249 16.9553 24.422 16.4654C25.5271 15.9756 26.7474 15.7307 28.083 15.7307C29.5459 15.7307 30.8258 15.9948 31.9229 16.5229C33.0201 17.0433 33.8707 17.7742 34.4749 18.7156C35.0871 19.6493 35.3932 20.7399 35.3932 21.9874C35.3932 22.8446 35.254 23.6176 34.9758 24.3064C34.6975 24.9876 34.3 25.5961 33.7833 26.1318C33.2745 26.6675 32.6623 27.1421 31.9468 27.5554C31.271 27.961 30.7225 28.3819 30.3011 28.8182C29.8877 29.2544 29.5856 29.771 29.3948 30.368C29.204 30.965 29.1007 31.7035 29.0848 32.5837V32.8018H25.6742Z" fill="white"/>
<ellipse cx="27.5194" cy="38.4486" rx="2.36904" ry="2.2718" fill="white"/>
</svg>
