<svg width="36" height="36" viewBox="0 0 36 36" fill="none" xmlns="http://www.w3.org/2000/svg">
<g clip-path="url(#clip0_651_2309)">
<path fill-rule="evenodd" clip-rule="evenodd" d="M35.2112 24.3423C35.6468 24.3423 36 24.6955 36 25.1311L36 28.1633C36 31.5033 33.2924 34.211 29.9523 34.211L27.3761 34.211C26.9405 34.211 26.5873 33.8578 26.5873 33.4221C26.5873 32.9865 26.9405 32.6333 27.3761 32.6333L29.9523 32.6333C32.421 32.6333 34.4223 30.632 34.4223 28.1633L34.4223 25.1311C34.4223 24.6955 34.7755 24.3423 35.2112 24.3423Z" fill="#787878"/>
<path d="M26.3704 33.8989C26.0577 33.6644 26.0577 33.1954 26.3704 32.9609L29.0141 30.9781C29.4006 30.6883 29.9521 30.964 29.9521 31.4471L29.9521 35.4127C29.9521 35.8958 29.4006 36.1716 29.0141 35.8817L26.3704 33.8989Z" fill="#787878"/>
<path fill-rule="evenodd" clip-rule="evenodd" d="M0.788827 11.6577C0.35317 11.6577 -1.54376e-08 11.3045 -3.44807e-08 10.8689L-1.67022e-07 7.8367C-3.13019e-07 4.49666 2.70764 1.78903 6.04768 1.78903L8.62388 1.78903C9.05954 1.78903 9.41271 2.1422 9.41271 2.57785C9.41271 3.01351 9.05954 3.36668 8.62388 3.36668L6.04768 3.36668C3.57895 3.36668 1.57765 5.36798 1.57765 7.8367L1.57765 10.8689C1.57765 11.3045 1.22448 11.6577 0.788827 11.6577Z" fill="#787878"/>
<path d="M9.62958 2.10108C9.94225 2.33558 9.94225 2.8046 9.62958 3.0391L6.98588 5.02188C6.59939 5.31175 6.04785 5.03598 6.04785 4.55287L6.04785 0.587312C6.04785 0.104203 6.59939 -0.171566 6.98588 0.1183L9.62958 2.10108Z" fill="#787878"/>
<rect x="0.964286" y="-0.964286" width="24.5334" height="18.2516" rx="1.60714" transform="matrix(1 0 0 -1 4.76904 26.1615)" stroke="#787878" stroke-width="1.92857" stroke-linejoin="round"/>
<path fill-rule="evenodd" clip-rule="evenodd" d="M5.42562 18.9643L30.5743 18.9643L30.5743 17.0358L5.42562 17.0358L5.42562 18.9643Z" fill="#787878"/>
<path fill-rule="evenodd" clip-rule="evenodd" d="M23.0487 27.2754L23.0487 8.72461L21.1201 8.72461L21.1201 27.2754L23.0487 27.2754Z" fill="#787878"/>
<path fill-rule="evenodd" clip-rule="evenodd" d="M14.8799 27.4493L14.8799 8.55078L12.9513 8.55078L12.9513 27.4493L14.8799 27.4493Z" fill="#787878"/>
</g>
<defs>
<clipPath id="clip0_651_2309">
<rect width="36" height="36" fill="white"/>
</clipPath>
</defs>
</svg>
