<svg width="36" height="36" viewBox="0 0 36 36" fill="none" xmlns="http://www.w3.org/2000/svg">
<path fill-rule="evenodd" clip-rule="evenodd" d="M11.6577 35.2112C11.6577 35.6468 11.3045 36 10.8689 36L7.8367 36C4.49666 36 1.78903 33.2924 1.78903 29.9523L1.78903 27.3761C1.78903 26.9405 2.1422 26.5873 2.57785 26.5873C3.01351 26.5873 3.36668 26.9405 3.36668 27.3761L3.36668 29.9523C3.36668 32.421 5.36798 34.4223 7.8367 34.4223L10.8689 34.4223C11.3045 34.4223 11.6577 34.7755 11.6577 35.2112Z" fill="#787878"/>
<path d="M2.10102 26.3704C2.33552 26.0577 2.80454 26.0577 3.03904 26.3704L5.02182 29.0141C5.31168 29.4005 5.03592 29.9521 4.55281 29.9521L0.58725 29.9521C0.104141 29.9521 -0.171627 29.4005 0.118239 29.0141L2.10102 26.3704Z" fill="#787878"/>
<path fill-rule="evenodd" clip-rule="evenodd" d="M24.2321 0.788827C24.2321 0.35317 24.5852 6.17502e-08 25.0209 1.37923e-07L28.0531 6.68087e-07C31.3931 1.25208e-06 34.1007 2.70764 34.1007 6.04768L34.1007 8.62389C34.1007 9.05955 33.7476 9.41272 33.3119 9.41272C32.8763 9.41272 32.5231 9.05955 32.5231 8.62389L32.5231 6.04768C32.5231 3.57895 30.5218 1.57766 28.0531 1.57766L25.0209 1.57766C24.5852 1.57766 24.2321 1.22448 24.2321 0.788827Z" fill="#787878"/>
<path d="M33.7888 9.62964C33.5542 9.94232 33.0852 9.94232 32.8507 9.62964L30.868 6.98594C30.5781 6.59945 30.8539 6.04791 31.337 6.04791L35.3025 6.04791C35.7856 6.04791 36.0614 6.59945 35.7715 6.98594L33.7888 9.62964Z" fill="#787878"/>
<rect x="0.964286" y="0.964286" width="24.5334" height="18.2516" rx="1.60714" transform="matrix(-4.3788e-08 1 1 4.36347e-08 7.90979 4.76898)" stroke="#787878" stroke-width="1.92857" stroke-linejoin="round"/>
<path fill-rule="evenodd" clip-rule="evenodd" d="M18.9643 31.1033L18.9643 5.95459L17.0358 5.95459L17.0358 31.1033L18.9643 31.1033Z" fill="#787878"/>
<path fill-rule="evenodd" clip-rule="evenodd" d="M27.9381 12.9362L9.38733 12.9362L9.38733 14.8647L27.9381 14.8647L27.9381 12.9362Z" fill="#787878"/>
<path fill-rule="evenodd" clip-rule="evenodd" d="M26.9603 21.105L8.06177 21.105L8.06177 23.0336L26.9603 23.0336L26.9603 21.105Z" fill="#787878"/>
</svg>
