<svg width="24" height="24" viewBox="0 0 24 24" fill="none" xmlns="http://www.w3.org/2000/svg">
<path d="M6.28575 0C5.50003 0 4.85718 0.61875 4.85718 1.375V20.625C4.85718 21.3813 5.50003 22 6.28575 22H20.5715C21.3572 22 22 21.3813 22 20.625V5.5L16.2857 0H6.28575Z" fill="#E2E5E7"/>
<path d="M17.7142 5.5H21.9999L16.2856 0V4.125C16.2856 4.88125 16.9285 5.5 17.7142 5.5Z" fill="#B0B7BD"/>
<path d="M22.0001 9.62505L17.7144 5.50005H22.0001V9.62505Z" fill="#CAD1D8"/>
<path d="M19.1429 17.875C19.1429 18.2531 18.8214 18.5625 18.4286 18.5625H2.71429C2.32143 18.5625 2 18.2531 2 17.875V11C2 10.6219 2.32143 10.3125 2.71429 10.3125H18.4286C18.8214 10.3125 19.1429 10.6219 19.1429 11V17.875Z" fill="#F15642"/>
<path d="M5.11377 13.0262C5.11377 12.8447 5.26234 12.6467 5.50177 12.6467H6.8212C7.56406 12.6467 8.23263 13.1252 8.23263 14.0424C8.23263 14.9114 7.56406 15.3954 6.8212 15.3954H5.86748V16.1214C5.86748 16.3634 5.70748 16.5003 5.50177 16.5003C5.3132 16.5003 5.11377 16.3636 5.11377 16.1214V13.0262ZM5.8672 13.3389V14.7084H6.82091C7.20377 14.7084 7.50663 14.3834 7.50663 14.0424C7.50663 13.6579 7.20377 13.3389 6.82091 13.3389H5.8672Z" fill="white"/>
<path d="M9.35095 16.5C9.16238 16.5 8.95667 16.401 8.95667 16.1596V13.037C8.95667 12.8395 9.16238 12.696 9.35095 12.696H10.659C13.2689 12.696 13.2118 16.5 10.7104 16.5H9.35124H9.35095ZM9.71095 13.3672V15.8299H10.6587C12.201 15.8299 12.2692 13.3672 10.6587 13.3672H9.71095Z" fill="white"/>
<path d="M14.1372 13.411V14.2846H15.5934C15.7992 14.2846 16.0049 14.4826 16.0049 14.6743C16.0049 14.8558 15.7992 15.0043 15.5934 15.0043H14.1372V16.1588C14.1372 16.3513 13.9952 16.4992 13.7949 16.4992C13.5434 16.4992 13.39 16.3513 13.39 16.1588V13.0361C13.39 12.8387 13.5443 12.6951 13.7949 12.6951H15.7997C16.0512 12.6951 16.1997 12.8387 16.1997 13.0361C16.1997 13.2121 16.0512 13.4101 15.7997 13.4101H14.1369V13.4107L14.1372 13.411Z" fill="white"/>
<path d="M18.4286 18.5625H4.85718V19.25H18.4286C18.8215 19.25 19.1429 18.9407 19.1429 18.5625V17.875C19.1429 18.2532 18.8215 18.5625 18.4286 18.5625Z" fill="#CAD1D8"/>
</svg>
