<svg width="86" height="86" viewBox="0 0 86 86" fill="none" xmlns="http://www.w3.org/2000/svg">
<g filter="url(#filter0_d_443_11554)">
<circle cx="43" cy="39" r="28" fill="#2E98FB"/>
</g>
<path d="M40.6327 43.0711V42.853C40.6486 41.4294 40.7956 40.2967 41.0739 39.4548C41.3601 38.6129 41.7656 37.9318 42.2903 37.4114C42.815 36.8909 43.447 36.4164 44.1864 35.9878C44.6634 35.697 45.0927 35.3717 45.4743 35.012C45.8559 34.6523 46.158 34.239 46.3806 33.7721C46.6032 33.3053 46.7145 32.7886 46.7145 32.2223C46.7145 31.5411 46.5475 30.9518 46.2136 30.4543C45.8797 29.9569 45.4345 29.5742 44.878 29.3063C44.3295 29.0308 43.7173 28.893 43.0415 28.893C42.4294 28.893 41.8451 29.0155 41.2885 29.2604C40.732 29.5053 40.2709 29.888 39.9052 30.4084C39.5395 30.9212 39.3288 31.5832 39.2732 32.3945H35.6479C35.7036 31.0169 36.0653 29.8535 36.7331 28.9045C37.4009 27.9478 38.2834 27.2246 39.3805 26.7347C40.4856 26.2449 41.7059 26 43.0415 26C44.5044 26 45.7843 26.264 46.8814 26.7921C47.9786 27.3126 48.8292 28.0435 49.4334 28.9849C50.0456 29.9186 50.3517 31.0092 50.3517 32.2567C50.3517 33.1139 50.2125 33.8869 49.9343 34.5757C49.656 35.2569 49.2585 35.8653 48.7418 36.4011C48.233 36.9368 47.6208 37.4114 46.9053 37.8246C46.2295 38.2303 45.681 38.6512 45.2596 39.0875C44.8462 39.5237 44.5441 40.0403 44.3533 40.6373C44.1625 41.2343 44.0592 41.9728 44.0433 42.853V43.0711H40.6327Z" fill="white"/>
<ellipse cx="42.4774" cy="48.7178" rx="2.36904" ry="2.2718" fill="white"/>
<defs>
<filter id="filter0_d_443_11554" x="0" y="0" width="86" height="86" filterUnits="userSpaceOnUse" color-interpolation-filters="sRGB">
<feFlood flood-opacity="0" result="BackgroundImageFix"/>
<feColorMatrix in="SourceAlpha" type="matrix" values="0 0 0 0 0 0 0 0 0 0 0 0 0 0 0 0 0 0 127 0" result="hardAlpha"/>
<feOffset dy="4"/>
<feGaussianBlur stdDeviation="7.5"/>
<feColorMatrix type="matrix" values="0 0 0 0 0.00624999 0 0 0 0 0.220125 0 0 0 0 0.375 0 0 0 0.25 0"/>
<feBlend mode="normal" in2="BackgroundImageFix" result="effect1_dropShadow_443_11554"/>
<feBlend mode="normal" in="SourceGraphic" in2="effect1_dropShadow_443_11554" result="shape"/>
</filter>
</defs>
</svg>
