<svg width="40" height="40" viewBox="0 0 40 40" fill="none" xmlns="http://www.w3.org/2000/svg">
<path d="M21.8256 12.7234L21.6725 12.9084C20.1755 11.8761 17.7917 13.1046 16.9589 13.5987C15.3787 12.6671 13.25 13.8355 12.6262 14.2187L9.79525 9.70302C8.07853 6.96466 4.27801 8.98335 5.99473 11.7217L13.8296 24.2192C13.0898 23.0391 12.1031 22.9037 10.5966 22.5642C6.92586 21.7397 6.35933 25.6485 9.45885 26.5408C16.3673 28.5232 20.1171 31.5523 22.6291 35.5591L34.0341 29.5012C34.0341 29.5012 32.7705 27.1392 32.2915 24.5676C31.7912 21.8567 30.382 18.2909 28.8226 15.8034L27.0793 13.0226C25.336 10.2419 21.8256 12.7234 21.8256 12.7234Z" fill="white"/>
<path d="M25.5293 11.0711C23.824 10.6864 22.0619 11.6793 21.5218 12.0229C21.3326 11.9397 21.1395 11.8727 20.9318 11.8276C19.2243 11.4394 17.4644 12.4358 16.9243 12.7794C16.7351 12.6962 16.542 12.6292 16.3343 12.5841C15.0028 12.2835 13.6448 12.8214 12.8505 13.234L10.4217 9.36141C9.31584 7.59824 7.46009 7.35007 6.19912 8.02013C4.93815 8.69019 4.24141 10.29 5.34946 12.0567L11.7119 22.2011C11.3805 22.0568 11.0448 21.9432 10.709 21.8672C8.36333 21.3423 7.00959 22.4668 6.74228 23.7348C6.46833 25.0298 7.25567 26.6466 9.27899 27.2297C15.4114 28.9883 19.3321 31.663 21.987 35.896L22.3837 36.5285L35.0252 29.811L34.6977 29.1983C34.6844 29.1771 33.48 26.9104 33.0332 24.4814C32.5079 21.6559 31.0752 18.0313 29.4575 15.4519L27.7156 12.6747C27.1816 11.8231 26.4271 11.2677 25.5306 11.0657L25.5293 11.0711ZM28.1903 16.1347C29.6884 18.5233 31.075 22.0217 31.5555 24.6401C31.9027 26.519 32.6418 28.2697 33.0665 29.1652L22.8584 34.5897C19.9887 30.353 15.8762 27.6436 9.62862 25.852C8.48054 25.5199 8.09484 24.7167 8.22253 24.1071C8.34757 23.5083 9.00982 22.9303 10.4763 23.2581C11.7847 23.5521 13.2192 24.5895 13.8309 25.5647L15.0989 24.8909L6.62681 11.3826C6.01074 10.4004 6.37129 9.61988 7.00178 9.28486C7.63226 8.94983 8.54684 9.05271 9.16292 10.035L15.4145 20.0027L16.6826 19.3289L13.651 14.4952C14.3 14.1597 15.2848 13.7872 16.1015 13.975C16.5746 14.0817 16.956 14.3737 17.2619 14.8613L19.2054 17.9601L20.4734 17.2863L18.5299 14.1875C18.4324 14.032 18.3252 13.8911 18.2108 13.754C18.8555 13.4114 19.865 13.0257 20.6933 13.2169C21.1663 13.3236 21.5478 13.6155 21.8558 14.1067L23.7993 17.2054L25.0674 16.5316L23.1239 13.4328C23.0264 13.2774 22.9169 13.133 22.8048 12.9994C23.4459 12.6587 24.4519 12.2749 25.2873 12.4623C25.7603 12.5689 26.1418 12.8609 26.4498 13.352L28.1939 16.1328L28.1903 16.1347Z" fill="#333333"/>
</svg>
