<svg width="14" height="14" viewBox="0 0 14 14" fill="none" xmlns="http://www.w3.org/2000/svg">
<g id="telegram" clip-path="url(#clip0_831_12388)">
<g id="Vector">
<path d="M9.46572 4.42521C9.46572 4.42521 10.1133 4.17902 10.0593 4.77691C10.0413 5.0231 9.87944 5.88475 9.75352 6.81676L9.32182 9.57758C9.32182 9.57758 9.28585 9.98203 8.96207 10.0524C8.63829 10.1227 8.15264 9.80618 8.06269 9.73584C7.99074 9.68309 6.71364 8.89177 6.26394 8.5049C6.13802 8.39939 5.99412 8.18837 6.28192 7.94218L8.17062 6.18371C8.38647 5.97268 8.60232 5.48031 7.70294 6.07819L5.18468 7.74876C5.18468 7.74876 4.89688 7.9246 4.35727 7.76634L3.18807 7.41464C3.18807 7.41464 2.75637 7.15087 3.49386 6.88709C5.29262 6.0606 7.50509 5.21652 9.46572 4.42521Z" fill="#0892D6"/>
<path fill-rule="evenodd" clip-rule="evenodd" d="M7 12.8187C10.2136 12.8187 12.8187 10.2136 12.8187 7C12.8187 3.78639 10.2136 1.18125 7 1.18125C3.78639 1.18125 1.18125 3.78639 1.18125 7C1.18125 10.2136 3.78639 12.8187 7 12.8187ZM7 14C10.866 14 14 10.866 14 7C14 3.13401 10.866 0 7 0C3.13401 0 0 3.13401 0 7C0 10.866 3.13401 14 7 14Z" fill="#0892D6"/>
</g>
</g>
<defs>
<clipPath id="clip0_831_12388">
<rect width="14" height="14" fill="white"/>
</clipPath>
</defs>
</svg>
