<svg width="14" height="14" viewBox="0 0 14 14" fill="none" xmlns="http://www.w3.org/2000/svg">
<g id="viber" clip-path="url(#clip0_831_12389)">
<path id="Vector" d="M6.6491 0.00215923C5.5256 0.0157217 3.11017 0.200347 1.75917 1.43978C0.75423 2.43553 0.403355 3.90772 0.36223 5.72816C0.328105 7.54203 0.28698 10.9484 3.57042 11.8759V13.2886C3.57042 13.2886 3.54985 13.8538 3.92348 13.9698C4.38373 14.1155 4.64579 13.6806 5.08329 13.2133L5.89923 12.2907C8.14579 12.4775 9.86648 12.047 10.0647 11.9831C10.5205 11.8374 13.0882 11.5093 13.5078 8.10247C13.9383 4.5841 13.2982 2.36728 12.1428 1.36453H12.1358C11.7871 1.04341 10.3858 0.0222842 7.25504 0.0109092C7.25504 0.0109092 7.02273 -0.00484077 6.6491 0.00172173V0.00215923ZM6.6876 0.991347C7.00654 0.989159 7.20035 1.00272 7.20035 1.00272C9.85029 1.00972 11.1151 1.80728 11.4135 2.07591C12.3865 2.90978 12.8879 4.90828 12.5208 7.84566C12.1721 10.6938 10.0896 10.874 9.70417 10.997C9.5401 11.0495 8.0246 11.4231 6.11535 11.3002C6.11535 11.3002 4.69348 13.016 4.24898 13.4579C4.17854 13.5353 4.09629 13.5581 4.04379 13.5467C3.96854 13.5283 3.94579 13.4352 3.95017 13.3074L3.96373 10.9628C1.17904 10.1928 1.3431 7.28741 1.37285 5.76972C1.40698 4.25203 1.69179 3.01041 2.53967 2.16953C3.6811 1.13747 5.7321 0.998347 6.68673 0.991347H6.6876ZM6.8976 2.5086C6.87469 2.50837 6.85195 2.51267 6.8307 2.52127C6.80945 2.52987 6.79012 2.54259 6.77381 2.55869C6.7575 2.5748 6.74454 2.59397 6.73568 2.61511C6.72682 2.63624 6.72222 2.65893 6.72217 2.68185C6.72217 2.77985 6.80179 2.85728 6.8976 2.85728C7.33139 2.84903 7.76251 2.92674 8.16611 3.08593C8.56972 3.24512 8.93781 3.48264 9.24917 3.78478C9.88485 4.4021 10.1946 5.2316 10.2064 6.31616C10.2064 6.41197 10.2839 6.4916 10.3819 6.4916V6.4846C10.428 6.48471 10.4724 6.46657 10.5053 6.43411C10.5381 6.40166 10.5568 6.35753 10.5573 6.31135C10.5785 5.80085 10.4957 5.29136 10.314 4.81386C10.1322 4.33635 9.8552 3.90079 9.49985 3.53366C8.80729 2.85685 7.92967 2.50816 6.8976 2.50816V2.5086ZM4.59154 2.90978C4.46771 2.89169 4.34141 2.91655 4.23367 2.98022H4.22448C3.97434 3.12685 3.74901 3.31216 3.55685 3.52928C3.39717 3.71391 3.31054 3.90072 3.28779 4.08053C3.27423 4.18772 3.28342 4.29491 3.31535 4.39728L3.32673 4.40428C3.50654 4.93278 3.74148 5.44116 4.02848 5.91978C4.39818 6.5922 4.85315 7.21407 5.3821 7.76997L5.39785 7.79272L5.42279 7.8111L5.43854 7.82947L5.45692 7.84522C6.01483 8.37573 6.63821 8.83282 7.31192 9.20541C8.08192 9.62453 8.54917 9.82272 8.8296 9.90497V9.90935C8.91185 9.93428 8.98667 9.94566 9.06192 9.94566C9.30092 9.92815 9.52717 9.83112 9.7046 9.67003C9.92074 9.47783 10.104 9.25157 10.2471 9.00022V8.99585C10.3814 8.74297 10.3359 8.50366 10.1421 8.34178C9.75396 8.0025 9.33423 7.70115 8.88867 7.44185C8.59029 7.27997 8.2871 7.37797 8.16417 7.54203L7.9021 7.87235C7.76779 8.03641 7.52367 8.01366 7.52367 8.01366L7.51667 8.01803C5.69623 7.55297 5.2106 5.70978 5.2106 5.70978C5.2106 5.70978 5.18785 5.4591 5.35629 5.33135L5.68442 5.0671C5.84148 4.93935 5.95085 4.6366 5.78242 4.33778C5.5249 3.8916 5.22421 3.47178 4.88467 3.08435C4.81044 2.99301 4.7063 2.93087 4.59067 2.90891L4.59154 2.90978ZM7.20035 3.42953C6.96804 3.42953 6.96804 3.78041 7.20254 3.78041C7.49141 3.78509 7.77653 3.84666 8.0416 3.96159C8.30667 4.07652 8.54649 4.24256 8.74735 4.45022C8.93059 4.65235 9.07139 4.8892 9.16142 5.14674C9.25145 5.40428 9.28888 5.67727 9.27148 5.94953C9.27228 5.99561 9.29109 6.03954 9.32388 6.07193C9.35667 6.10431 9.40083 6.12256 9.44692 6.12278L9.45392 6.13197C9.50034 6.13163 9.54476 6.11303 9.57759 6.08021C9.61042 6.04738 9.62901 6.00296 9.62935 5.95653C9.6451 5.26135 9.42898 4.67816 9.00504 4.21091C8.57892 3.74366 7.98435 3.4816 7.22529 3.42953H7.20035ZM7.48779 4.37278C7.24848 4.36578 7.23929 4.72366 7.47642 4.73066C8.05304 4.76041 8.33304 5.05178 8.36979 5.65116C8.37059 5.69666 8.38917 5.74003 8.42155 5.772C8.45393 5.80397 8.49754 5.822 8.54304 5.82222H8.55004C8.57343 5.82122 8.5964 5.81557 8.61758 5.80559C8.63877 5.79562 8.65775 5.78153 8.67343 5.76414C8.68911 5.74675 8.70117 5.72641 8.70891 5.7043C8.71664 5.6822 8.71989 5.65878 8.71848 5.63541C8.67735 4.85403 8.25123 4.41391 7.49479 4.37322H7.48779V4.37278Z" fill="#854BFF"/>
</g>
<defs>
<clipPath id="clip0_831_12389">
<rect width="14" height="14" fill="white"/>
</clipPath>
</defs>
</svg>
