<svg width="32" height="32" viewBox="0 0 32 32" fill="none" xmlns="http://www.w3.org/2000/svg">
<g clip-path="url(#clip0_565_2159)">
<path d="M21.6359 10.1148C21.6359 10.1148 23.1161 9.55205 22.9927 10.9186C22.9516 11.4814 22.5816 13.4509 22.2938 15.5812L21.307 21.8916C21.307 21.8916 21.2248 22.8161 20.4847 22.9769C19.7447 23.1376 18.6346 22.4141 18.429 22.2533C18.2645 22.1328 15.3455 20.324 14.3176 19.4398C14.0298 19.1986 13.7008 18.7163 14.3587 18.1536L18.6757 14.1342C19.1691 13.6518 19.6624 12.5264 17.6067 13.893L11.8507 17.7114C11.8507 17.7114 11.1929 18.1134 9.95947 17.7516L7.28702 16.9478C7.28702 16.9478 6.30027 16.3449 7.98596 15.7419C12.0974 13.8528 17.1545 11.9235 21.6359 10.1148Z" fill="#0892D6"/>
<path fill-rule="evenodd" clip-rule="evenodd" d="M16 29.3C23.3454 29.3 29.3 23.3454 29.3 16C29.3 8.65461 23.3454 2.7 16 2.7C8.65461 2.7 2.7 8.65461 2.7 16C2.7 23.3454 8.65461 29.3 16 29.3ZM16 32C24.8366 32 32 24.8366 32 16C32 7.16344 24.8366 0 16 0C7.16344 0 0 7.16344 0 16C0 24.8366 7.16344 32 16 32Z" fill="#0892D6"/>
</g>
<defs>
<clipPath id="clip0_565_2159">
<rect width="32" height="32" fill="white"/>
</clipPath>
</defs>
</svg>
