<svg width="32" height="32" viewBox="0 0 32 32" fill="none" xmlns="http://www.w3.org/2000/svg">
<g clip-path="url(#clip0_565_2160)">
<path d="M15.1978 0.00502257C12.6298 0.0360226 7.10881 0.458023 4.02081 3.29102C1.72381 5.56702 0.921814 8.93202 0.827814 13.093C0.749814 17.239 0.655814 25.025 8.16081 27.145V30.374C8.16081 30.374 8.11381 31.666 8.96781 31.931C10.0198 32.264 10.6188 31.27 11.6188 30.202L13.4838 28.093C18.6188 28.52 22.5518 27.536 23.0048 27.39C24.0468 27.057 29.9158 26.307 30.8748 18.52C31.8588 10.478 30.3958 5.41102 27.7548 3.11902H27.7388C26.9418 2.38502 23.7388 0.0510226 16.5828 0.0250226C16.5828 0.0250226 16.0518 -0.0109774 15.1978 0.00402257V0.00502257ZM15.2858 2.26602C16.0148 2.26102 16.4578 2.29202 16.4578 2.29202C22.5148 2.30802 25.4058 4.13102 26.0878 4.74502C28.3118 6.65102 29.4578 11.219 28.6188 17.933C27.8218 24.443 23.0618 24.855 22.1808 25.136C21.8058 25.256 18.3418 26.11 13.9778 25.829C13.9778 25.829 10.7278 29.751 9.71181 30.761C9.55081 30.938 9.36281 30.99 9.24281 30.964C9.07081 30.922 9.01881 30.709 9.02881 30.417L9.05981 25.058C2.69481 23.298 3.06981 16.657 3.13781 13.188C3.21581 9.71902 3.86681 6.88102 5.80481 4.95902C8.41381 2.60002 13.1018 2.28202 15.2838 2.26602H15.2858ZM15.7658 5.73402C15.7134 5.7335 15.6615 5.74334 15.6129 5.76299C15.5643 5.78265 15.5201 5.81171 15.4829 5.84853C15.4456 5.88534 15.416 5.92916 15.3957 5.97748C15.3754 6.02579 15.3649 6.07763 15.3648 6.13002C15.3648 6.35402 15.5468 6.53102 15.7658 6.53102C16.7573 6.51217 17.7427 6.68979 18.6653 7.05365C19.5878 7.41751 20.4291 7.9604 21.1408 8.65102C22.5938 10.062 23.3018 11.958 23.3288 14.437C23.3288 14.656 23.5058 14.838 23.7298 14.838V14.822C23.8354 14.8223 23.9368 14.7808 24.0119 14.7066C24.087 14.6325 24.1298 14.5316 24.1308 14.426C24.1794 13.2592 23.9901 12.0946 23.5746 11.0032C23.1591 9.91174 22.526 8.91618 21.7138 8.07702C20.1308 6.53002 18.1248 5.73302 15.7658 5.73302V5.73402ZM10.4948 6.65102C10.2118 6.60967 9.92308 6.66648 9.67681 6.81202H9.65581C9.08407 7.14716 8.56903 7.57074 8.12981 8.06702C7.76481 8.48902 7.56681 8.91602 7.51481 9.32702C7.48381 9.57202 7.50481 9.81702 7.57781 10.051L7.60381 10.067C8.01481 11.275 8.55181 12.437 9.20781 13.531C10.0528 15.068 11.0928 16.4894 12.3018 17.76L12.3378 17.812L12.3948 17.854L12.4308 17.896L12.4728 17.932C13.748 19.1446 15.1729 20.1894 16.7128 21.041C18.4728 21.999 19.5408 22.452 20.1818 22.64V22.65C20.3698 22.707 20.5408 22.733 20.7128 22.733C21.2591 22.693 21.7763 22.4712 22.1818 22.103C22.6758 21.6637 23.0947 21.1465 23.4218 20.572V20.562C23.7288 19.984 23.6248 19.437 23.1818 19.067C22.2946 18.2915 21.3352 17.6027 20.3168 17.01C19.6348 16.64 18.9418 16.864 18.6608 17.239L18.0618 17.994C17.7548 18.369 17.1968 18.317 17.1968 18.317L17.1808 18.327C13.0198 17.264 11.9098 13.051 11.9098 13.051C11.9098 13.051 11.8578 12.478 12.2428 12.186L12.9928 11.582C13.3518 11.29 13.6018 10.598 13.2168 9.91502C12.6282 8.89518 11.9409 7.93557 11.1648 7.05002C10.9951 6.84125 10.7571 6.69921 10.4928 6.64902L10.4948 6.65102ZM16.4578 7.83902C15.9268 7.83902 15.9268 8.64102 16.4628 8.64102C17.1231 8.65173 17.7748 8.79246 18.3807 9.05516C18.9865 9.31785 19.5347 9.69737 19.9938 10.172C20.4126 10.634 20.7345 11.1754 20.9403 11.7641C21.146 12.3527 21.2316 12.9767 21.1918 13.599C21.1936 13.7043 21.2366 13.8048 21.3116 13.8788C21.3865 13.9528 21.4875 13.9945 21.5928 13.995L21.6088 14.016C21.7149 14.0152 21.8165 13.9727 21.8915 13.8977C21.9665 13.8227 22.009 13.7211 22.0098 13.615C22.0458 12.026 21.5518 10.693 20.5828 9.62502C19.6088 8.55702 18.2498 7.95802 16.5148 7.83902H16.4578ZM17.1148 9.99502C16.5678 9.97902 16.5468 10.797 17.0888 10.813C18.4068 10.881 19.0468 11.547 19.1308 12.917C19.1326 13.021 19.1751 13.1202 19.2491 13.1932C19.3231 13.2663 19.4228 13.3075 19.5268 13.308H19.5428C19.5963 13.3057 19.6488 13.2928 19.6972 13.27C19.7456 13.2472 19.789 13.215 19.8249 13.1753C19.8607 13.1355 19.8883 13.089 19.9059 13.0385C19.9236 12.988 19.931 12.9344 19.9278 12.881C19.8338 11.095 18.8598 10.089 17.1308 9.99602H17.1148V9.99502Z" fill="#854BFF"/>
</g>
<defs>
<clipPath id="clip0_565_2160">
<rect width="32" height="32" fill="white"/>
</clipPath>
</defs>
</svg>
