<svg width="14" height="14" viewBox="0 0 14 14" fill="none" xmlns="http://www.w3.org/2000/svg">
<g id="whatsapp">
<path id="Vector" d="M11.9011 2.03564C10.5939 0.721787 8.85102 0 6.995 0C3.17319 0 0.0598716 3.11333 0.0565454 6.93514C0.0565454 8.15918 0.375861 9.34997 0.981229 10.4044L0 14L3.67878 13.0354C4.69327 13.5876 5.83415 13.8803 6.995 13.8803H6.99832C10.8201 13.8803 13.9334 10.7669 13.9368 6.94179C13.9334 5.0891 13.2117 3.34616 11.9011 2.03564ZM6.995 12.7061C5.95722 12.7061 4.94273 12.4267 4.05796 11.9012L3.84841 11.7748L1.66643 12.3469L2.24851 10.2181L2.11214 9.99858C1.53338 9.08054 1.23069 8.01948 1.23069 6.93181C1.23069 3.75861 3.81848 1.17082 6.99832 1.17082C8.53835 1.17082 9.98525 1.77287 11.0762 2.86054C12.1639 3.95153 12.7626 5.39843 12.7626 6.93847C12.7593 10.1216 10.1715 12.7061 6.995 12.7061ZM10.1582 8.38869C9.98525 8.30221 9.13374 7.88311 8.97409 7.82324C8.81443 7.76669 8.69801 7.73676 8.58492 7.90972C8.4685 8.08268 8.13588 8.47517 8.0361 8.58826C7.93631 8.70468 7.8332 8.71799 7.66024 8.6315C7.48727 8.54502 6.92847 8.36208 6.26656 7.77002C5.751 7.311 5.40507 6.74222 5.30196 6.56926C5.20218 6.39629 5.29198 6.30316 5.37846 6.21668C5.45497 6.14018 5.55143 6.01378 5.63791 5.91399C5.72439 5.81421 5.75432 5.74103 5.81087 5.62461C5.86742 5.5082 5.84081 5.40841 5.79757 5.32193C5.75432 5.23545 5.4084 4.38061 5.26205 4.03469C5.12235 3.69542 4.97932 3.74198 4.87288 3.73866C4.7731 3.732 4.65668 3.732 4.54026 3.732C4.42385 3.732 4.23758 3.77524 4.07792 3.94821C3.91826 4.12117 3.47255 4.54027 3.47255 5.39511C3.47255 6.24994 4.09455 7.07151 4.18103 7.18793C4.26751 7.30435 5.40175 9.05393 7.14135 9.80565C7.5538 9.98527 7.87644 10.0917 8.12923 10.1715C8.54501 10.3046 8.92087 10.2846 9.22023 10.2414C9.55285 10.1915 10.2447 9.82229 10.391 9.41649C10.5341 9.01069 10.5341 8.66477 10.4908 8.59159C10.4476 8.51841 10.3312 8.47517 10.1582 8.38869Z" fill="#12A529"/>
</g>
</svg>
